<svg viewBox="0 0 480 360" xmlns="http://www.w3.org/2000/svg" role="img" aria-label="Psiquiatría">
  <defs>
    <linearGradient id="psq" x1="0" y1="0" x2="1" y2="1">
      <stop offset="0" stop-color="#38bdf8"/>
      <stop offset="1" stop-color="#6366f1"/>
    </linearGradient>
  </defs>
  <g fill="none" stroke="url(#psq)" stroke-width="8" stroke-linecap="round" stroke-linejoin="round">
    <!-- Perfil de cabeza -->
    <path d="M150 300 C120 300 108 270 110 246 C112 220 96 214 92 196 C86 168 104 120 150 100 C210 74 296 92 322 150 C340 190 330 220 316 240 C306 254 306 268 312 300"/>
    <!-- Corazón + pulso (bienestar / cuidado médico) -->
    <path d="M196 178 c-16 -18 -46 -8 -46 16 c0 24 46 46 46 46 c0 0 46 -22 46 -46 c0 -24 -30 -34 -46 -16 z"/>
    <path d="M150 240 l26 0 l12 -26 l16 46 l12 -20 l14 0" stroke-width="6"/>
  </g>
</svg>
